<svg width="24" height="25" viewBox="0 0 24 25" fill="none" xmlns="http://www.w3.org/2000/svg">
<mask id="mask0_97_1150" style="mask-type:alpha" maskUnits="userSpaceOnUse" x="0" y="0" width="24" height="25">
<rect y="0.428711" width="24" height="24" fill="#D9D9D9"/>
</mask>
<g mask="url(#mask0_97_1150)">
<path d="M4 20.4287C3.45 20.4287 2.97917 20.2329 2.5875 19.8412C2.19583 19.4495 2 18.9787 2 18.4287V6.42871C2 5.87871 2.19583 5.40788 2.5875 5.01621C2.97917 4.62454 3.45 4.42871 4 4.42871H20C20.55 4.42871 21.0208 4.62454 21.4125 5.01621C21.8042 5.40788 22 5.87871 22 6.42871V18.4287C22 18.9787 21.8042 19.4495 21.4125 19.8412C21.0208 20.2329 20.55 20.4287 20 20.4287H4ZM20 8.42871L12.525 13.1037C12.4417 13.1537 12.3542 13.1912 12.2625 13.2162C12.1708 13.2412 12.0833 13.2537 12 13.2537C11.9167 13.2537 11.8292 13.2412 11.7375 13.2162C11.6458 13.1912 11.5583 13.1537 11.475 13.1037L4 8.42871V18.4287H20V8.42871ZM12 11.4287L20 6.42871H4L12 11.4287ZM4 8.67871V7.20371V7.22871V7.21621V8.67871Z" fill="#01BCE7"/>
</g>
</svg>
